<?xml version="1.0" standalone="no"?>
<!DOCTYPE svg PUBLIC "-//W3C//DTD SVG 20010904//EN"
 "http://www.w3.org/TR/2001/REC-SVG-20010904/DTD/svg10.dtd">
<svg version="1.0" xmlns="http://www.w3.org/2000/svg"
 width="96.000000pt" height="96.000000pt" viewBox="0 0 96.000000 96.000000"
 preserveAspectRatio="xMidYMid meet">
<metadata>
Created by potrace 1.16, written by Peter Selinger 2001-2019
</metadata>
<g transform="translate(0.000000,96.000000) scale(0.100000,-0.100000)"
fill="#000000" stroke="none">
<path d="M74 946 c-17 -8 -40 -26 -52 -41 -22 -27 -22 -33 -22 -422 0 -333 2
-399 15 -423 31 -59 36 -60 468 -60 389 0 395 0 422 22 53 42 55 55 55 460 0
355 -1 375 -20 406 -11 18 -34 41 -52 52 -31 19 -51 20 -408 20 -291 -1 -382
-4 -406 -14z m338 -123 c16 -14 18 -33 18 -144 0 -103 -3 -131 -16 -143 -12
-13 -40 -16 -135 -16 -66 0 -129 5 -140 10 -17 10 -19 23 -19 151 0 167 -10
157 159 158 93 1 118 -2 133 -16z m279 -132 c76 -76 139 -143 139 -149 0 -18
-30 -22 -159 -22 -85 0 -131 4 -139 12 -8 8 -12 54 -12 139 0 129 4 159 22
159 6 0 73 -63 149 -139z m-273 -273 c17 -17 17 -269 0 -286 -17 -17 -269 -17
-286 0 -17 17 -17 269 0 286 17 17 269 17 286 0z m404 -5 c15 -14 18 -33 18
-135 0 -66 -5 -128 -10 -139 -10 -17 -23 -19 -150 -19 -127 0 -140 2 -150 19
-5 11 -10 74 -10 140 0 95 3 123 16 135 23 24 259 23 286 -1z"/>
</g>
</svg>
