<?xml version="1.0" encoding="UTF-8"?>
<svg version="1.1" xmlns="http://www.w3.org/2000/svg" width="192" height="192">
<path d="M0 0 C14.4727714 12.58132257 24.80514148 28.3398611 27.1875 47.6875 C28.65317484 69.71907 24.32517588 89.1475592 9.5 106.2265625 C-4.61462032 121.24718885 -22.10706041 130.35760326 -42.8293457 131.02197266 C-63.57076243 131.34426744 -81.47861404 125.09708681 -96.8125 110.6875 C-110.50913978 97.32063485 -118.6737709 80.09729956 -119.10522461 60.86181641 C-119.26748396 39.94438256 -113.42040565 22.23307527 -98.8125 6.6875 C-72.24752 -20.16210478 -29.85505834 -23.46939308 0 0 Z " fill="#FE0000" transform="translate(141.8125,38.3125)"/>
<path d="M0 0 C1.18433121 -0.00191345 2.36866241 -0.0038269 3.58888245 -0.00579834 C6.0824505 -0.00715355 8.57602576 -0.00350376 11.06958008 0.00488281 C14.86360706 0.01558186 18.65715956 0.0049694 22.45117188 -0.0078125 C24.88411562 -0.0064906 27.31705907 -0.00392758 29.75 0 C30.87321152 -0.00404846 31.99642303 -0.00809692 33.15367126 -0.01226807 C40.76279056 0.03250808 48.58843866 0.13419612 55.37890625 3.890625 C60.12809169 9.35938399 60.89841135 15.68632917 60.83984375 22.640625 C60.84271393 23.40938965 60.84558411 24.1781543 60.84854126 24.97021484 C60.85056831 26.58366642 60.84513435 28.19714334 60.83251953 29.81054688 C60.81644526 32.25968133 60.83241369 34.70716597 60.8515625 37.15625 C60.84957983 38.73437859 60.84573565 40.31250616 60.83984375 41.890625 C60.84591644 42.61169434 60.85198914 43.33276367 60.85824585 44.07568359 C60.77234599 50.38269127 59.60976767 56.15147262 54.94140625 60.703125 C50.78200146 63.302753 46.92582004 63.55384 42.15625 63.81640625 C41.41350327 63.85824539 40.67075653 63.90008453 39.90550232 63.94319153 C30.91082091 64.40357991 21.91413846 64.45168962 12.90942383 64.45092773 C9.98309318 64.45314074 7.05712516 64.47145907 4.13085938 64.49023438 C2.23567834 64.49316507 0.34049556 64.49515203 -1.5546875 64.49609375 C-2.41219101 64.50327927 -3.26969452 64.51046478 -4.15318298 64.51786804 C-11.12238433 64.4918872 -18.30862949 64.06347757 -24.49609375 60.640625 C-29.24527919 55.17186601 -30.01559885 48.84492083 -29.95703125 41.890625 C-29.95990143 41.12186035 -29.96277161 40.3530957 -29.96572876 39.56103516 C-29.96775581 37.94758358 -29.96232185 36.33410666 -29.94970703 34.72070312 C-29.93363276 32.27156867 -29.94960119 29.82408403 -29.96875 27.375 C-29.96676733 25.79687141 -29.96292315 24.21874384 -29.95703125 22.640625 C-29.96310394 21.91955566 -29.96917664 21.19848633 -29.97543335 20.45556641 C-29.8912248 14.27273953 -28.67059304 8.62609479 -24.43359375 3.890625 C-16.93200186 -0.3494052 -8.39506645 -0.03020443 0 0 Z " fill="#FCF8F8" transform="translate(80.55859375,63.734375)"/>
<path d="M0 0 C7.33333333 4 14.66666667 8 22 12 C22 12.66 22 13.32 22 14 C18.52281278 16.00345661 15.04293033 18.00218349 11.5625 20 C10.56927734 20.57234375 9.57605469 21.1446875 8.55273438 21.734375 C7.60849609 22.27578125 6.66425781 22.8171875 5.69140625 23.375 C4.37958374 24.12910156 4.37958374 24.12910156 3.04125977 24.8984375 C1 26 1 26 0 26 C0 17.42 0 8.84 0 0 Z " fill="#FE0303" transform="translate(87,83)"/>
</svg>
